<svg width="100" height="100" viewBox="0 0 100 100" fill="none" xmlns="http://www.w3.org/2000/svg">
<path d="M50 50L75 75" stroke="white" stroke-width="7" stroke-linecap="round" stroke-linejoin="round"/>
<path d="M50 75L75 50" stroke="white" stroke-width="7" stroke-linecap="round" stroke-linejoin="round"/>
<path d="M83.3333 33.332H41.6666C37.0642 33.332 33.3333 37.063 33.3333 41.6654V83.332C33.3333 87.9344 37.0642 91.6654 41.6666 91.6654H83.3333C87.9356 91.6654 91.6666 87.9344 91.6666 83.332V41.6654C91.6666 37.063 87.9356 33.332 83.3333 33.332Z" stroke="white" stroke-width="7" stroke-linecap="round" stroke-linejoin="round"/>
<path d="M16.6666 66.6654C12.0833 66.6654 8.33325 62.9154 8.33325 58.332V16.6654C8.33325 12.082 12.0833 8.33203 16.6666 8.33203H58.3333C62.9166 8.33203 66.6666 12.082 66.6666 16.6654" stroke="white" stroke-width="7" stroke-linecap="round" stroke-linejoin="round"/>
</svg>
