<svg width="100" height="100" viewBox="0 0 100 100" fill="none" xmlns="http://www.w3.org/2000/svg">
<path d="M49.7127 6C41.0672 6 32.6158 8.56371 25.4272 13.3669C18.2387 18.1701 12.636 24.9971 9.32745 32.9846C6.01894 40.972 5.15328 49.7612 6.83995 58.2406C8.52661 66.7201 12.6898 74.5089 18.8032 80.6222C24.9165 86.7356 32.7054 90.8988 41.1848 92.5855C49.6642 94.2721 58.4534 93.4065 66.4408 90.098C74.4283 86.7895 81.2553 81.1867 86.0585 73.9982C90.8617 66.8097 93.4254 58.3583 93.4254 49.7127C93.4132 38.1231 88.8038 27.0117 80.6087 18.8167C72.4137 10.6216 61.3023 6.01224 49.7127 6ZM49.7127 86.7004C42.3972 86.7004 35.2461 84.5311 29.1635 80.4668C23.0809 76.4026 18.3401 70.6259 15.5406 63.8673C12.7411 57.1087 12.0086 49.6717 13.4358 42.4968C14.8629 35.3219 18.3857 28.7313 23.5585 23.5585C28.7313 18.3856 35.3219 14.8629 42.4968 13.4357C49.6717 12.0086 57.1087 12.741 63.8673 15.5405C70.6259 18.3401 76.4026 23.0809 80.4668 29.1635C84.5311 35.246 86.7004 42.3972 86.7004 49.7127C86.6893 59.519 82.7888 68.9205 75.8547 75.8546C68.9205 82.7888 59.519 86.6892 49.7127 86.7004ZM68.3831 26.5282L41.483 39.9782C40.8326 40.3049 40.3049 40.8326 39.9782 41.4829L26.5282 68.3831C26.2716 68.8959 26.1504 69.4658 26.1761 70.0387C26.2018 70.6116 26.3737 71.1684 26.6752 71.6561C26.9768 72.1439 27.3981 72.5464 27.8991 72.8254C28.4001 73.1045 28.9642 73.2507 29.5376 73.2503C30.0596 73.2495 30.5745 73.1287 31.0424 72.8972L57.9425 59.4472C58.5928 59.1205 59.1205 58.5928 59.4472 57.9425L72.8973 31.0423C73.2146 30.4107 73.3248 29.6952 73.2123 28.9974C73.0997 28.2995 72.7701 27.6549 72.2703 27.1551C71.7705 26.6553 71.1259 26.3257 70.4281 26.2132C69.7302 26.1006 69.0147 26.2108 68.3831 26.5282ZM53.9159 53.9158L37.0571 62.3684L45.5096 45.5096L62.3852 37.0738L53.9159 53.9158Z" fill="white"/>
</svg>
