<svg width="100" height="100" viewBox="0 0 100 100" fill="none" xmlns="http://www.w3.org/2000/svg">
<path d="M48.175 13.6098C48.3548 13.2831 48.6191 13.0107 48.9401 12.821C49.2611 12.6313 49.6271 12.5312 50 12.5312C50.3729 12.5312 50.7389 12.6313 51.0599 12.821C51.3809 13.0107 51.6452 13.2831 51.825 13.6098L64.125 36.9598C64.4183 37.5004 64.8277 37.9695 65.3238 38.3332C65.8199 38.6969 66.3903 38.9462 66.9942 39.0633C67.598 39.1805 68.2203 39.1624 68.8164 39.0105C69.4125 38.8586 69.9675 38.5766 70.4417 38.1848L88.2625 22.9181C88.6046 22.6399 89.0262 22.4773 89.4665 22.4539C89.9068 22.4305 90.3432 22.5475 90.7129 22.7879C91.0826 23.0283 91.3664 23.3798 91.5236 23.7918C91.6807 24.2038 91.7031 24.6551 91.5875 25.0806L79.7792 67.7723C79.5381 68.6459 79.0188 69.4171 78.3 69.969C77.5812 70.5209 76.702 70.8234 75.7958 70.8306H24.2083C23.3014 70.8243 22.4213 70.5222 21.7016 69.9702C20.982 69.4183 20.4621 68.6466 20.2208 67.7723L8.41667 25.0848C8.30104 24.6592 8.32342 24.208 8.48059 23.796C8.63775 23.384 8.92159 23.0325 9.29125 22.792C9.66091 22.5516 10.0973 22.4347 10.5377 22.4581C10.978 22.4815 11.3996 22.644 11.7417 22.9223L29.5583 38.1889C30.0325 38.5808 30.5875 38.8628 31.1836 39.0147C31.7797 39.1666 32.402 39.1846 33.0058 39.0675C33.6097 38.9504 34.1801 38.701 34.6762 38.3373C35.1723 37.9736 35.5817 37.5046 35.875 36.9639L48.175 13.6098Z" stroke="#FEF08A" stroke-width="5" stroke-linecap="round" stroke-linejoin="round"/>
<path d="M20.8333 87.5H79.1667" stroke="#FEF08A" stroke-width="5" stroke-linecap="round" stroke-linejoin="round"/>
</svg>
