<svg width="100" height="100" viewBox="0 0 100 100" fill="none" xmlns="http://www.w3.org/2000/svg">
<path d="M66.6666 87.5V79.1667C66.6666 74.7464 64.9106 70.5072 61.785 67.3816C58.6594 64.256 54.4202 62.5 49.9999 62.5H24.9999C20.5796 62.5 16.3404 64.256 13.2148 67.3816C10.0892 70.5072 8.33325 74.7464 8.33325 79.1667V87.5" stroke="white" stroke-width="6" stroke-linecap="round" stroke-linejoin="round"/>
<path d="M37.4999 45.8333C46.7047 45.8333 54.1666 38.3714 54.1666 29.1667C54.1666 19.9619 46.7047 12.5 37.4999 12.5C28.2952 12.5 20.8333 19.9619 20.8333 29.1667C20.8333 38.3714 28.2952 45.8333 37.4999 45.8333Z" stroke="white" stroke-width="6" stroke-linecap="round" stroke-linejoin="round"/>
<path d="M70.8333 33.332L91.6666 54.1654" stroke="white" stroke-width="6" stroke-linecap="round" stroke-linejoin="round"/>
<path d="M91.6666 33.332L70.8333 54.1654" stroke="white" stroke-width="6" stroke-linecap="round" stroke-linejoin="round"/>
</svg>
