<svg width="90" height="90" viewBox="0 0 90 90" fill="none" xmlns="http://www.w3.org/2000/svg">
<path d="M49.2188 45C49.2188 45.8344 48.9713 46.65 48.5078 47.3438C48.0442 48.0376 47.3853 48.5783 46.6144 48.8976C45.8436 49.2169 44.9953 49.3005 44.177 49.1377C43.3586 48.9749 42.6069 48.5731 42.0169 47.9831C41.4269 47.3931 41.0251 46.6414 40.8623 45.823C40.6995 45.0047 40.7831 44.1564 41.1024 43.3856C41.4217 42.6147 41.9624 41.9558 42.6562 41.4922C43.35 41.0287 44.1656 40.7813 45 40.7813C46.1189 40.7813 47.1919 41.2257 47.9831 42.0169C48.7743 42.8081 49.2188 43.8811 49.2188 45ZM45 25.3125C45.8344 25.3125 46.65 25.0651 47.3438 24.6015C48.0376 24.138 48.5783 23.4791 48.8976 22.7082C49.2169 21.9373 49.3005 21.0891 49.1377 20.2707C48.9749 19.4524 48.5731 18.7006 47.9831 18.1106C47.3931 17.5206 46.6414 17.1188 45.823 16.9561C45.0047 16.7933 44.1564 16.8768 43.3856 17.1961C42.6147 17.5154 41.9558 18.0562 41.4922 18.7499C41.0287 19.4437 40.7813 20.2594 40.7813 21.0938C40.7813 22.2126 41.2257 23.2857 42.0169 24.0769C42.8081 24.868 43.8811 25.3125 45 25.3125ZM45 64.6875C44.1656 64.6875 43.35 64.9349 42.6562 65.3985C41.9624 65.8621 41.4217 66.5209 41.1024 67.2918C40.7831 68.0627 40.6995 68.9109 40.8623 69.7293C41.0251 70.5476 41.4269 71.2994 42.0169 71.8894C42.6069 72.4794 43.3586 72.8812 44.177 73.0439C44.9953 73.2067 45.8436 73.1232 46.6144 72.8039C47.3853 72.4846 48.0442 71.9438 48.5078 71.2501C48.9713 70.5563 49.2188 69.7406 49.2188 68.9062C49.2188 67.7874 48.7743 66.7143 47.9831 65.9231C47.1919 65.132 46.1189 64.6875 45 64.6875Z" fill="white"/>
</svg>
