<svg width="93" height="93" viewBox="0 0 93 93" fill="none" xmlns="http://www.w3.org/2000/svg">
<path d="M72.0758 49.1236C72.0758 49.8899 71.7721 50.6249 71.2314 51.1668C70.6907 51.7087 69.9574 52.0131 69.1928 52.0131H23.0643C22.2997 52.0131 21.5664 51.7087 21.0257 51.1668C20.485 50.6249 20.1813 49.8899 20.1813 49.1236C20.1813 48.3572 20.485 47.6222 21.0257 47.0803C21.5664 46.5384 22.2997 46.234 23.0643 46.234H69.1928C69.9574 46.234 70.6907 46.5384 71.2314 47.0803C71.7721 47.6222 72.0758 48.3572 72.0758 49.1236ZM83.6079 28.8965H8.64914C7.88452 28.8965 7.15121 29.2009 6.61053 29.7428C6.06986 30.2847 5.76611 31.0197 5.76611 31.7861C5.76611 32.5524 6.06986 33.2874 6.61053 33.8293C7.15121 34.3712 7.88452 34.6757 8.64914 34.6757H83.6079C84.3726 34.6757 85.1059 34.3712 85.6465 33.8293C86.1872 33.2874 86.491 32.5524 86.491 31.7861C86.491 31.0197 86.1872 30.2847 85.6465 29.7428C85.1059 29.2009 84.3726 28.8965 83.6079 28.8965ZM54.7776 63.5715H37.4794C36.7148 63.5715 35.9815 63.8759 35.4408 64.4178C34.9002 64.9597 34.5964 65.6947 34.5964 66.4611C34.5964 67.2274 34.9002 67.9624 35.4408 68.5043C35.9815 69.0462 36.7148 69.3506 37.4794 69.3506H54.7776C55.5423 69.3506 56.2756 69.0462 56.8162 68.5043C57.3569 67.9624 57.6607 67.2274 57.6607 66.4611C57.6607 65.6947 57.3569 64.9597 56.8162 64.4178C56.2756 63.8759 55.5423 63.5715 54.7776 63.5715Z" fill="#AEB8C9"/>
</svg>
