<svg width="100" height="100" viewBox="0 0 100 100" fill="none" xmlns="http://www.w3.org/2000/svg">
<path d="M66.0686 58.199C65.4765 61.5061 63.8854 64.5525 61.5095 66.9279C59.1335 69.3034 56.0869 70.8938 52.7796 71.4852C52.6541 71.5053 52.5271 71.5158 52.4 71.5166C51.8272 71.5164 51.2755 71.301 50.8541 70.9131C50.4327 70.5252 50.1725 69.9931 50.1251 69.4223C50.0777 68.8515 50.2465 68.2837 50.5981 67.8316C50.9497 67.3794 51.4584 67.0759 52.0232 66.9813C56.7526 66.185 60.7656 62.172 61.5676 57.434C61.669 56.8368 62.0035 56.3043 62.4976 55.9537C62.9916 55.6031 63.6047 55.4631 64.202 55.5645C64.7992 55.666 65.3317 56.0005 65.6823 56.4946C66.0329 56.9886 66.1729 57.6017 66.0715 58.199H66.0686ZM75.2333 55.5331C75.2333 62.1945 72.5871 68.5831 67.8768 73.2934C63.1665 78.0038 56.778 80.65 50.1167 80.65C43.4553 80.65 37.0668 78.0038 32.3565 73.2934C27.6462 68.5831 25 62.1945 25 55.5331C25 47.5642 28.1396 39.4155 34.3217 31.3154C34.5174 31.0589 34.7652 30.8468 35.0488 30.693C35.3324 30.5393 35.6454 30.4474 35.9671 30.4234C36.2889 30.3994 36.612 30.4438 36.9153 30.5538C37.2186 30.6637 37.4951 30.8367 37.7267 31.0613L44.611 37.743L50.8901 20.5008C51.0156 20.157 51.2219 19.8483 51.4916 19.6008C51.7614 19.3533 52.0866 19.1743 52.44 19.0789C52.7934 18.9835 53.1646 18.9745 53.5222 19.0525C53.8799 19.1306 54.2135 19.2935 54.495 19.5276C60.737 24.7079 75.2333 38.565 75.2333 55.5331ZM70.6667 55.5331C70.6667 42.3782 60.4516 31.01 54.0526 25.1846L47.6963 42.6151C47.5659 42.9731 47.3479 43.2928 47.0623 43.545C46.7767 43.7971 46.4325 43.9739 46.0611 44.059C45.6897 44.1441 45.3029 44.1349 44.9359 44.0323C44.569 43.9296 44.2336 43.7368 43.9602 43.4713L36.4338 36.1703C31.8757 42.7492 29.5667 49.2539 29.5667 55.5331C29.5667 60.9834 31.7317 66.2104 35.5856 70.0643C39.4395 73.9182 44.6665 76.0833 50.1167 76.0833C55.5669 76.0833 60.7938 73.9182 64.6477 70.0643C68.5016 66.2104 70.6667 60.9834 70.6667 55.5331Z" fill="#AEB8C9"/>
</svg>
