<svg width="100" height="100" viewBox="0 0 100 100" fill="none" xmlns="http://www.w3.org/2000/svg">
<path d="M16.6667 58.3351C15.8782 58.3378 15.1052 58.1167 14.4374 57.6975C13.7695 57.2783 13.2344 56.6782 12.894 55.967C12.5537 55.2557 12.4221 54.4625 12.5146 53.6795C12.6072 52.8964 12.92 52.1557 13.4167 51.5434L54.6667 9.0434C54.9761 8.68624 55.3978 8.44489 55.8625 8.35896C56.3271 8.27303 56.8072 8.34762 57.2239 8.5705C57.6406 8.79339 57.9692 9.15131 58.1556 9.58552C58.3421 10.0197 58.3754 10.5044 58.25 10.9601L50.25 36.0434C50.0142 36.6748 49.9349 37.3539 50.0192 38.0226C50.1034 38.6913 50.3486 39.3296 50.7338 39.8827C51.1189 40.4358 51.6324 40.8872 52.2304 41.1982C52.8283 41.5093 53.4927 41.6706 54.1667 41.6684H83.3334C84.1219 41.6657 84.8949 41.8868 85.5627 42.306C86.2306 42.7252 86.7657 43.3253 87.1061 44.0365C87.4464 44.7477 87.578 45.541 87.4855 46.324C87.3929 47.107 87.0801 47.8477 86.5834 48.4601L45.3334 90.9601C45.024 91.3172 44.6023 91.5586 44.1376 91.6445C43.6729 91.7304 43.1929 91.6559 42.7762 91.433C42.3595 91.2101 42.0309 90.8522 41.8445 90.418C41.658 89.9837 41.6247 89.499 41.7501 89.0434L49.75 63.9601C49.9859 63.3287 50.0652 62.6496 49.9809 61.9809C49.8967 61.3122 49.6515 60.6739 49.2663 60.1208C48.8812 59.5677 48.3677 59.1163 47.7697 58.8052C47.1718 58.4942 46.5074 58.3329 45.8334 58.3351H16.6667Z" stroke="white" stroke-width="7" stroke-linecap="round" stroke-linejoin="round"/>
</svg>
