<svg width="100" height="100" viewBox="0 0 100 100" fill="none" xmlns="http://www.w3.org/2000/svg">
<path d="M85.7402 81.7597L68.1374 64.1605C73.2394 58.0353 75.7835 50.1788 75.2405 42.2256C74.6975 34.2724 71.1092 26.8346 65.2221 21.4596C59.3349 16.0847 51.6022 13.1863 43.6325 13.3674C35.6628 13.5485 28.0697 16.7952 22.4328 22.4321C16.7959 28.069 13.5492 35.662 13.3681 43.6317C13.187 51.6015 16.0854 59.3342 21.4604 65.2213C26.8354 71.1085 34.2731 74.6968 42.2263 75.2398C50.1796 75.7828 58.036 73.2387 64.1612 68.1367L81.7605 85.7394C82.0218 86.0007 82.332 86.208 82.6734 86.3494C83.0148 86.4909 83.3808 86.5636 83.7503 86.5636C84.1199 86.5636 84.4858 86.4909 84.8272 86.3494C85.1686 86.208 85.4788 86.0007 85.7402 85.7394C86.0015 85.4781 86.2087 85.1679 86.3502 84.8265C86.4916 84.4851 86.5644 84.1191 86.5644 83.7496C86.5644 83.38 86.4916 83.0141 86.3502 82.6727C86.2087 82.3313 86.0015 82.021 85.7402 81.7597ZM19.0628 44.3746C19.0628 39.3682 20.5474 34.4743 23.3287 30.3117C26.1101 26.1491 30.0634 22.9047 34.6886 20.9889C39.3139 19.073 44.4034 18.5718 49.3135 19.5485C54.2237 20.5251 58.7339 22.9359 62.274 26.4759C65.814 30.016 68.2248 34.5262 69.2014 39.4364C70.1781 44.3465 69.6769 49.436 67.761 54.0613C65.8452 58.6865 62.6008 62.6398 58.4382 65.4212C54.2756 68.2025 49.3817 69.6871 44.3753 69.6871C37.6643 69.6796 31.2303 67.0104 26.4849 62.265C21.7395 57.5196 19.0703 51.0856 19.0628 44.3746Z" fill="white"/>
</svg>
