<svg width="130" height="130" viewBox="0 0 130 130" fill="none" xmlns="http://www.w3.org/2000/svg">
<circle cx="65" cy="65" r="63.5227" stroke="white" stroke-width="2.95457"/>
<path d="M88.6363 67.2211C89.8601 67.2211 90.8522 66.229 90.8522 65.0051C90.8522 63.7813 89.8601 62.7892 88.6363 62.7892V67.2211ZM41.3635 62.7892C40.1397 62.7892 39.1476 63.7813 39.1476 65.0051C39.1476 66.229 40.1397 67.2211 41.3635 67.2211V62.7892ZM51.6218 81.3517C52.491 82.2133 53.8941 82.207 54.7556 81.3378C55.6171 80.4685 55.6108 79.0655 54.7416 78.204L51.6218 81.3517ZM47.9729 74.6154L49.5328 73.0415L47.9729 74.6154ZM47.9729 55.3949L46.413 53.8211L47.9729 55.3949ZM54.7416 51.8063C55.6108 50.9448 55.6171 49.5418 54.7556 48.6725C53.8941 47.8033 52.491 47.797 51.6218 48.6585L54.7416 51.8063ZM41.4223 65.9309L39.2241 66.2111L39.2241 66.2111L41.4223 65.9309ZM41.4223 64.0794L39.2241 63.7992L39.2241 63.7992L41.4223 64.0794ZM88.6363 65.0051V62.7892H41.3635V65.0051V67.2211H88.6363V65.0051ZM53.1817 79.7779L54.7416 78.204L49.5328 73.0415L47.9729 74.6154L46.413 76.1892L51.6218 81.3517L53.1817 79.7779ZM47.9729 55.3949L49.5328 56.9688L54.7416 51.8063L53.1817 50.2324L51.6218 48.6585L46.413 53.8211L47.9729 55.3949ZM47.9729 74.6154L49.5328 73.0415C47.4189 70.9463 45.9688 69.5044 44.9876 68.2826C44.0344 67.0958 43.7075 66.3335 43.6204 65.6507L41.4223 65.9309L39.2241 66.2111C39.4569 68.0373 40.3283 69.5587 41.5321 71.0577C42.7078 72.5216 44.3731 74.1674 46.413 76.1892L47.9729 74.6154ZM47.9729 55.3949L46.413 53.8211C44.3731 55.8429 42.7078 57.4887 41.5321 58.9526C40.3283 60.4515 39.4569 61.973 39.2241 63.7992L41.4223 64.0794L43.6204 64.3596C43.7075 63.6768 44.0344 62.9145 44.9876 61.7277C45.9688 60.5059 47.4189 59.064 49.5328 56.9688L47.9729 55.3949ZM41.4223 65.9309L43.6204 65.6507C43.5658 65.222 43.5658 64.7883 43.6204 64.3596L41.4223 64.0794L39.2241 63.7992C39.1221 64.6 39.1221 65.4103 39.2241 66.2111L41.4223 65.9309Z" fill="white"/>
</svg>
