<svg width="100" height="100" viewBox="0 0 100 100" fill="none" xmlns="http://www.w3.org/2000/svg">
<path d="M63.4471 65.324C59.8639 62.3419 58.9207 55.0849 60.5961 50.7346V50.7346C62.0169 47.0454 62.1975 42.9938 61.1106 39.1928C60.0237 35.3918 57.7284 32.0482 54.572 29.6679C51.4156 27.2876 47.5698 26 43.6165 26C39.6632 26 35.8174 27.2876 32.661 29.6679C29.5046 32.0482 27.2093 35.3918 26.1224 39.1928C25.0355 42.9938 25.2161 47.0454 26.6369 50.7346V50.7346C28.3114 55.0826 27.3645 62.3379 23.7822 65.3171C22.2588 66.584 20.8271 68.0092 19.5024 69.5858C19.1369 70.0205 18.959 70.5825 19.008 71.1483C19.0569 71.7141 19.3286 72.2373 19.7632 72.6027C20.1979 72.9682 20.76 73.146 21.3257 73.0971C21.8915 73.0482 22.4147 72.7765 22.7802 72.3418C28.1505 65.9307 35.5517 62.4013 43.6031 62.4013C51.6545 62.4013 59.0558 65.9307 64.4421 72.3418C64.8076 72.7765 65.3307 73.0482 65.8965 73.0971C66.4623 73.146 67.0244 72.9682 67.459 72.6027C67.8937 72.2373 68.1654 71.7141 68.2143 71.1483C68.2632 70.5825 68.0854 70.0205 67.7199 69.5858C66.3967 68.0121 64.9673 66.5892 63.4471 65.324ZM29.6891 44.206C29.6891 41.4541 30.5051 38.7639 32.034 36.4758C33.5629 34.1876 35.736 32.4042 38.2784 31.3511C40.8209 30.298 43.6185 30.0224 46.3176 30.5593C49.0167 31.0962 51.4959 32.4214 53.4418 34.3673C55.3878 36.3132 56.7129 38.7924 57.2498 41.4915C57.7867 44.1906 57.5112 46.9882 56.458 49.5307C55.4049 52.0732 53.6215 54.2462 51.3333 55.7751C49.0452 57.304 46.3551 58.1201 43.6031 58.1201C39.9142 58.1158 36.3775 56.6485 33.7691 54.04C31.1606 51.4316 29.6933 47.8949 29.6891 44.206ZM70.1897 32.8607C71.7152 36.4486 72.5015 40.3073 72.5015 44.206C72.5015 48.1047 71.7152 51.9634 70.1897 55.5513C70.025 55.9372 69.7505 56.2662 69.4004 56.4974C69.0502 56.7286 68.6399 56.8519 68.2203 56.8518C67.866 56.852 67.5171 56.7643 67.205 56.5965C66.8929 56.4288 66.6273 56.1861 66.4321 55.8904C66.2369 55.5947 66.1182 55.2551 66.0865 54.9022C66.0549 54.5492 66.1114 54.194 66.2509 53.8683C67.5505 50.8127 68.2204 47.5264 68.2204 44.206C68.2204 40.8856 67.5505 37.5993 66.2509 34.5438C66.0277 34.0215 66.0212 33.4319 66.2327 32.9047C66.4442 32.3776 66.8565 31.956 67.3788 31.7329C67.9011 31.5097 68.4907 31.5031 69.0178 31.7146C69.545 31.9261 69.9665 32.3384 70.1897 32.8607ZM81.064 44.206C81.0741 49.2795 80.046 54.3015 78.0431 58.9629C77.8088 59.4681 77.3869 59.8621 76.8669 60.0614C76.3469 60.2606 75.7697 60.2493 75.2579 60.0299C74.746 59.8106 74.3398 59.4004 74.1255 58.8865C73.9111 58.3725 73.9054 57.7953 74.1097 57.2772C75.8735 53.1451 76.7828 48.6988 76.7828 44.206C76.7828 39.7132 75.8735 35.2669 74.1097 31.1348C73.9892 30.875 73.9221 30.5937 73.9123 30.3074C73.9025 30.0212 73.9503 29.7359 74.0527 29.4685C74.1552 29.201 74.3102 28.9569 74.5088 28.7505C74.7073 28.544 74.9452 28.3795 75.2084 28.2667C75.4717 28.1539 75.7549 28.0951 76.0413 28.0937C76.3277 28.0923 76.6114 28.1484 76.8757 28.2586C77.1401 28.3689 77.3796 28.531 77.5801 28.7355C77.7806 28.94 77.938 29.1826 78.0431 29.4491C80.046 34.1105 81.0741 39.1325 81.064 44.206Z" fill="white"/>
</svg>
