<svg width="100" height="100" viewBox="0 0 100 100" fill="none" xmlns="http://www.w3.org/2000/svg">
<path d="M48.0208 9.56076C48.2034 9.19184 48.4855 8.88131 48.8352 8.66419C49.1849 8.44708 49.5884 8.33203 50 8.33203C50.4116 8.33203 50.8151 8.44708 51.1648 8.66419C51.5145 8.88131 51.7966 9.19184 51.9792 9.56076L61.6042 29.0566C62.2382 30.3398 63.1742 31.45 64.3318 32.2918C65.4893 33.1337 66.8339 33.6821 68.25 33.8899L89.775 37.0399C90.1829 37.099 90.566 37.2711 90.8812 37.5366C91.1964 37.8021 91.431 38.1505 91.5584 38.5424C91.6859 38.9344 91.7011 39.3541 91.6024 39.7542C91.5038 40.1544 91.2951 40.5189 91 40.8066L75.4333 55.9649C74.4067 56.9653 73.6386 58.2003 73.1951 59.5634C72.7517 60.9265 72.6461 62.377 72.8875 63.7899L76.5625 85.2066C76.6345 85.6142 76.5905 86.0339 76.4354 86.4178C76.2804 86.8016 76.0205 87.1341 75.6856 87.3774C75.3507 87.6207 74.9541 87.7649 74.5411 87.7937C74.1281 87.8224 73.7154 87.7345 73.35 87.5399L54.1083 77.4233C52.8405 76.7575 51.4299 76.4097 49.9979 76.4097C48.5659 76.4097 47.1553 76.7575 45.8875 77.4233L26.65 87.5399C26.2847 87.7333 25.8725 87.8203 25.4602 87.791C25.0479 87.7617 24.6522 87.6173 24.3179 87.3742C23.9836 87.1311 23.7243 86.799 23.5694 86.4158C23.4145 86.0327 23.3702 85.6137 23.4417 85.2066L27.1125 63.7941C27.355 62.3805 27.2499 60.9291 26.8064 59.5651C26.3629 58.2011 25.5942 56.9656 24.5667 55.9649L9 40.8108C8.70248 40.5234 8.49164 40.1582 8.39151 39.7569C8.29138 39.3556 8.30599 38.9342 8.43366 38.5407C8.56134 38.1473 8.79695 37.7976 9.11365 37.5315C9.43036 37.2654 9.81543 37.0937 10.225 37.0358L31.7458 33.8899C33.1636 33.6837 34.51 33.136 35.6691 32.294C36.8282 31.4521 37.7654 30.341 38.4 29.0566L48.0208 9.56076Z" stroke="#FEF08A" stroke-width="6" stroke-linecap="round" stroke-linejoin="round"/>
</svg>
