<svg width="51" height="51" viewBox="0 0 51 51" fill="none" xmlns="http://www.w3.org/2000/svg">
<path d="M10 8.5L16 7.5L19.5 5.5L21.5 3.5L25.5 2L28.5 3.5L33 6.5L36 7.5H40.5L42.5 9.5L43.5 13L45 18.5L47 21L48.5 24V28L45.5 31L43.5 35L42.5 40.5L40.5 43.5L36 44L32 45L28.5 47L25.5 48.5L22.5 46.5L17 45L13.5 44L10 43.5L7.5 41V38.5V35L5 32L4 29.5C3.5 28.1667 2.5 25.4 2.5 25C2.5 24.6 3.5 22.8333 4 22L7.5 19V13L10 8.5Z" fill="#0080FF" stroke="black"/>
<path d="M47.7893 19.7707C46.9308 18.8734 46.0427 17.9489 45.708 17.1359C45.3983 16.3913 45.3801 15.157 45.3618 13.9615C45.3277 11.739 45.2913 9.22039 43.5401 7.46922C41.7889 5.71805 39.2703 5.68162 37.0478 5.64746C35.8523 5.62924 34.618 5.61102 33.8734 5.30132C33.0627 4.96658 32.1359 4.07847 31.2386 3.21996C29.6674 1.71018 27.882 0 25.5047 0C23.1273 0 21.3442 1.71018 19.7707 3.21996C18.8734 4.07847 17.9489 4.96658 17.1359 5.30132C16.3958 5.61102 15.157 5.62924 13.9615 5.64746C11.739 5.68162 9.22039 5.71805 7.46922 7.46922C5.71805 9.22039 5.693 11.739 5.64746 13.9615C5.62924 15.157 5.61102 16.3913 5.30132 17.1359C4.96658 17.9466 4.07847 18.8734 3.21996 19.7707C1.71018 21.3419 0 23.1273 0 25.5047C0 27.882 1.71018 29.6651 3.21996 31.2386C4.07847 32.1359 4.96658 33.0604 5.30132 33.8734C5.61102 34.618 5.62924 35.8523 5.64746 37.0478C5.68162 39.2703 5.71805 41.7889 7.46922 43.5401C9.22039 45.2913 11.739 45.3277 13.9615 45.3618C15.157 45.3801 16.3913 45.3983 17.1359 45.708C17.9466 46.0427 18.8734 46.9308 19.7707 47.7893C21.3419 49.2991 23.1273 51.0093 25.5047 51.0093C27.882 51.0093 29.6651 49.2991 31.2386 47.7893C32.1359 46.9308 33.0604 46.0427 33.8734 45.708C34.618 45.3983 35.8523 45.3801 37.0478 45.3618C39.2703 45.3277 41.7889 45.2913 43.5401 43.5401C45.2913 41.7889 45.3277 39.2703 45.3618 37.0478C45.3801 35.8523 45.3983 34.618 45.708 33.8734C46.0427 33.0627 46.9308 32.1359 47.7893 31.2386C49.2991 29.6674 51.0093 27.882 51.0093 25.5047C51.0093 23.1273 49.2991 21.3442 47.7893 19.7707ZM45.1592 28.7178C44.0684 29.8564 42.9389 31.0337 42.34 32.4797C41.7661 33.8688 41.7411 35.456 41.7183 36.9931C41.6955 38.5872 41.6705 40.2564 40.9623 40.9623C40.2541 41.6682 38.5963 41.6955 36.9931 41.7183C35.456 41.7411 33.8688 41.7661 32.4797 42.34C31.0337 42.9389 29.8564 44.0684 28.7178 45.1592C27.5792 46.25 26.4155 47.3658 25.5047 47.3658C24.5938 47.3658 23.421 46.2454 22.2915 45.1592C21.162 44.0729 19.9756 42.9389 18.5296 42.34C17.1405 41.7661 15.5533 41.7411 14.0162 41.7183C12.4221 41.6955 10.7529 41.6705 10.047 40.9623C9.34108 40.2541 9.31375 38.5963 9.29098 36.9931C9.26821 35.456 9.24316 33.8688 8.6693 32.4797C8.0704 31.0337 6.94091 29.8564 5.85013 28.7178C4.75935 27.5792 3.64352 26.4155 3.64352 25.5047C3.64352 24.5938 4.7639 23.421 5.85013 22.2915C6.93635 21.162 8.0704 19.9756 8.6693 18.5296C9.24316 17.1405 9.26821 15.5533 9.29098 14.0162C9.31375 12.4221 9.3388 10.7529 10.047 10.047C10.7552 9.34108 12.413 9.31375 14.0162 9.29098C15.5533 9.26821 17.1405 9.24316 18.5296 8.6693C19.9756 8.0704 21.1529 6.94091 22.2915 5.85013C23.4301 4.75935 24.5938 3.64352 25.5047 3.64352C26.4155 3.64352 27.5883 4.7639 28.7178 5.85013C29.8473 6.93635 31.0337 8.0704 32.4797 8.6693C33.8688 9.24316 35.456 9.26821 36.9931 9.29098C38.5872 9.31375 40.2564 9.3388 40.9623 10.047C41.6682 10.7552 41.6955 12.413 41.7183 14.0162C41.7411 15.5533 41.7661 17.1405 42.34 18.5296C42.9389 19.9756 44.0684 21.1529 45.1592 22.2915C46.25 23.4301 47.3658 24.5938 47.3658 25.5047C47.3658 26.4155 46.2454 27.5883 45.1592 28.7178ZM35.9024 18.7505C36.0717 18.9197 36.2061 19.1206 36.2978 19.3417C36.3895 19.5629 36.4366 19.8 36.4366 20.0394C36.4366 20.2788 36.3895 20.5158 36.2978 20.737C36.2061 20.9582 36.0717 21.1591 35.9024 21.3283L23.15 34.0806C22.9808 34.25 22.7799 34.3843 22.5588 34.476C22.3376 34.5677 22.1005 34.6149 21.8611 34.6149C21.6217 34.6149 21.3847 34.5677 21.1635 34.476C20.9423 34.3843 20.7414 34.25 20.5722 34.0806L15.107 28.6153C14.7651 28.2735 14.5731 27.8098 14.5731 27.3264C14.5731 26.843 14.7651 26.3794 15.107 26.0375C15.4488 25.6957 15.9124 25.5036 16.3958 25.5036C16.8793 25.5036 17.3429 25.6957 17.6847 26.0375C19.991 28.3451 23.7315 28.3454 26.0382 26.0382L33.3246 18.7505C33.4938 18.5811 33.6947 18.4467 33.9158 18.355C34.137 18.2634 34.3741 18.2162 34.6135 18.2162C34.8529 18.2162 35.0899 18.2634 35.3111 18.355C35.5322 18.4467 35.7332 18.5811 35.9024 18.7505Z" fill="white"/>
</svg>
